<svg width="572" height="400" viewBox="0 0 572 400" fill="none" xmlns="http://www.w3.org/2000/svg">
<path d="M203.573 21.1578C179.573 28.6578 164.073 37.6577 150.573 60.1577C132.573 73.1577 122.073 87.6576 120.573 107.658C102.073 122.158 99.0729 139.158 101.073 160.158C94.5729 182.658 95.5727 195.158 103.073 217.158C104.073 244.658 117.073 261.658 135.573 281.658C138.073 300.658 156.573 316.158 179.073 320.158C179.073 339.158 195.573 357.158 216.073 355.658C244.573 355.658 262.073 393.158 308.573 389.658C317.073 389.658 330.465 390.417 344.573 382.658C354.573 377.158 362.806 375.619 373.073 381.658C390.073 391.658 406.573 393.658 429.573 391.158C462.573 402.658 491.573 389.658 500.073 380.158C552.073 367.158 580.573 330.658 561.073 283.158C557.67 274.868 554.573 273.658 556.073 260.658C557.073 248.158 557.573 239.158 550.073 228.158C545.537 221.506 543.345 217.107 542.073 209.158C540.073 196.658 535.573 189.658 524.573 183.158C517.746 179.124 512.073 176.658 512.073 167.158C512.073 158.584 508.271 152.815 501.073 148.158C492.573 142.658 487.66 138.79 484.073 129.658C478.573 115.658 473.073 105.658 458.573 100.658C450.203 97.7714 447.573 92.6577 441.573 85.6577C429.975 72.1275 421.573 63.1577 404.073 59.6577C392.296 57.3022 385.297 53.6007 376.573 45.1577C361.073 30.1577 346.573 22.6577 325.073 26.6577C315.284 28.4788 300.073 21.6577 300.073 21.6577C288.573 17.1577 283.573 17.6577 270.073 19.6577C245.073 10.6579 217.573 12.6579 203.573 21.1578Z" fill="#FF51A8"/>
<path fill-rule="evenodd" clip-rule="evenodd" d="M150.573 60.1572C132.573 73.1572 122.073 87.6572 120.573 107.657C102.073 122.157 99.0729 139.157 101.073 160.157C94.5729 182.657 95.5727 195.157 103.073 217.157C104.073 244.657 117.073 261.657 135.573 281.657C138.073 300.657 156.573 316.157 179.073 320.157C179.073 339.157 195.573 357.157 216.073 355.657C244.573 355.657 262.073 393.157 308.573 389.657C317.073 389.657 330.465 390.417 344.573 382.657C354.573 377.157 362.806 375.618 373.073 381.657C390.073 391.657 406.573 393.657 429.573 391.157C462.573 402.657 491.573 389.657 500.073 380.157C542.847 367.623 555.569 354.21 566.573 323.657C535.573 346.657 497.573 348.157 458.573 318.657C449.479 311.779 437.482 312.2 427.573 319.157C404.073 335.657 389.507 323.657 388.073 291.157C386.573 257.157 372.073 242.657 338.573 252.157C327.573 255.277 297.073 260.657 284.073 243.657C276.235 233.407 267.298 225.164 253.573 217.157C247.573 213.657 244.073 211.157 240.573 204.657C235.512 195.258 232.073 190.157 223.073 183.657C215.994 178.544 214.179 172.319 213.073 163.657C210.073 140.157 215.573 109.657 182.573 102.657C149.573 95.6572 156.073 66.6572 184.573 29.6572C184.573 29.6572 163.573 42.6572 150.573 60.1572ZM127.572 142.657C128.073 146.157 130.94 148.062 133.572 151.157C142.073 161.157 146.013 175.202 145.072 185.157C144.19 194.49 155.748 197.553 156.572 187.657C158.267 167.289 153.573 144.157 139.572 138.157C129.91 134.017 126.743 136.864 127.572 142.657ZM236.573 261.657C212.073 254.657 193.573 220.657 193.573 199.157C193.573 190.657 202.073 183.657 208.073 197.657C213.19 209.597 219.073 219.157 228.573 225.157L228.962 225.403C238.768 231.596 244.291 235.083 251.073 244.657C259.573 256.657 244.963 264.054 236.573 261.657ZM122.073 198.157C119.573 217.157 127.969 237.042 146.573 250.657C154.955 268.572 162.913 272.884 182.573 271.157C190.874 290.755 199.941 296.091 223.073 296.657C241.698 317.301 259.573 321.657 272.573 306.157C252.933 303.234 245.355 297.237 236.073 281.157C213.906 284.76 205.929 278.913 198.073 257.157C176.985 261.231 169.231 255.882 161.073 235.657C141.609 229.161 135.229 220.636 130.573 198.157C127.57 190.269 122.506 194.866 122.073 198.157ZM371.572 347.158C357.573 343.128 371.314 320.158 383.572 336.658C396.573 354.157 409.073 359.657 425.572 348.658C438.274 340.191 443.073 341.157 450.072 345.658C455.345 349.048 458.284 350.186 462.072 351.158C481.573 356.157 465.573 371.657 445.072 367.658C434.325 365.561 427.834 367.134 417.072 369.158C402.928 371.818 394.116 371.716 383.572 358.658C379.495 353.608 377.81 348.954 371.572 347.158ZM313.573 299.657C316.427 312.224 317.9 319.964 323.073 326.657C331.573 337.657 322.573 347.657 308.573 340.157C297.022 333.969 286.964 316.21 291.073 302.657C296.112 286.037 310.133 284.51 313.573 299.657Z" fill="#C6389A"/>
<path d="M214.573 47.157C213.59 55.3879 200.307 64.7245 207.573 84.157C212.19 96.5048 207.846 99.8841 195.073 91.157C179.745 80.684 188.402 52.7863 200.073 38.157C206.602 29.973 216.32 32.5311 214.573 47.157Z" fill="#C6389A"/>
<path d="M262.573 51.1572C253.573 72.6572 248.073 98.6572 253.573 123.657C261.518 159.773 269.982 193.171 286.573 211.657C304.073 231.157 294.561 256.157 276.073 229.657C246.073 186.657 224.703 77.232 248.073 45.6572C260.72 28.5695 268.109 30.024 262.573 51.1572Z" fill="#C6389A"/>
<path d="M288.073 94.1576C286.764 129.19 298.073 160.657 337.573 173.658C362.934 182.005 367.073 184.658 375.573 190.658C384.073 196.657 391.764 199.881 401.573 206.658C429.073 225.657 429.019 253.781 427.073 282.158C426.085 296.564 409.536 296.568 409.573 282.158C409.635 258.157 404.411 235.965 383.073 221.158C375.051 215.591 369.128 213.477 362.073 204.658C348.073 187.157 324.241 185.847 310.573 182.658C275.158 174.394 273.231 101.526 273.573 89.1576C273.915 76.7892 288.73 76.5542 288.073 94.1576Z" fill="#C6389A"/>
<path d="M300.073 58.1576C295.073 68.1576 285.073 67.1572 288.073 54.6576C290.151 45.9982 296.913 38.8262 306.073 40.6576C311.073 41.6574 316.073 45.6576 310.073 47.6576C304.701 49.4482 302.605 53.0928 300.073 58.1576Z" fill="#C6389A"/>
<path d="M525.072 267.658C509.975 283.257 483.509 289.741 471.072 280.158C463.841 274.586 455.073 281.657 464.572 289.658C492.476 313.159 533.073 302.657 546.072 277.158C551.468 266.572 540.073 252.157 525.072 267.658Z" fill="#C6389A"/>
<path d="M375.573 144.157C345.293 139.726 336.573 111.657 343.573 85.157C345.528 77.7557 337.688 60.6572 328.073 73.157C313.073 92.6572 305.073 142.157 342.073 154.157C361.003 160.297 372.073 162.233 391.073 168.157C402.45 171.704 408.243 176.214 420.073 177.657C440.573 180.157 440.44 191.572 441.573 205.157C446.073 259.157 492.077 254.732 515.073 234.157C524.573 225.657 510.573 224.157 504.073 227.657C481.99 239.547 466.099 231.774 459.073 200.157C457.073 191.157 454.073 175.657 444.073 170.157C436.852 166.186 432.573 162.157 427.073 157.657C413.073 146.202 396.073 147.157 375.573 144.157Z" fill="#C6389A"/>
<path d="M226.573 136.657C224.573 145.657 226.073 158.657 235.573 171.657M222.073 121.657C220.573 119.657 220.573 117.657 220.573 115.157M369.073 77.1572C365.027 90.1261 374.073 98.1572 384.573 91.6572M390.573 123.657C431.176 125.598 447.046 133.727 468.573 155.157M478.073 172.157C478.731 174.209 478.888 175.314 478.573 177.157M562.073 336.157C567.573 316.157 556.947 294.035 554.073 287.035C551.2 280.035 547.573 277.535 549.073 264.535C550.073 252.035 550.573 243.035 543.073 232.035C538.538 225.383 536.345 220.984 535.073 213.035C533.073 200.535 528.573 193.535 517.573 187.035C510.747 183.001 505.073 180.535 505.073 171.035C505.073 162.461 501.272 156.692 494.073 152.035C485.573 146.535 480.661 142.667 477.073 133.535C471.573 119.535 466.073 109.535 451.573 104.535C443.203 101.648 440.573 96.5346 434.573 89.5346C422.976 76.0045 414.573 67.0346 397.073 63.5346C385.296 61.1792 378.298 57.4776 369.573 49.0346C354.073 34.0346 339.573 26.5346 318.073 30.5346C308.285 32.3557 293.073 25.5346 293.073 25.5346C281.573 21.0347 276.573 21.5347 263.073 23.5347C238.073 14.5348 210.573 16.5348 196.573 25.0348C186.146 28.3388 181.267 31.148 172.573 35.6572" stroke="#FF7DBD" stroke-width="8" stroke-linecap="round"/>
<path d="M464.573 277.158C449.073 279.658 447.573 294.658 449.073 308.158C449.894 315.548 449.196 320.971 445.073 327.158M469.573 359.658C477.073 345.658 490.073 341.158 505.073 344.158C514.579 346.059 521.073 345.158 529.573 340.158M238.073 106.658C238.073 121.658 239.073 126.658 244.073 141.158M313.573 288.158C312.573 299.158 314.073 307.658 320.073 320.158M308.573 210.658C315.073 223.658 324.573 233.158 339.572 236.658M198.073 41.6578C188.573 54.1578 187.073 69.6577 192.301 87.4979M251.073 165.158C263.573 213.658 287.728 280.164 338.573 267.158C360.073 261.658 366.573 281.158 372.573 294.658M153.572 91.6577C143.573 110.658 150.573 127.658 177.572 123.658C197.947 120.639 204.072 150.658 206.072 174.158M134.573 137.158C151.073 149.658 156.573 157.158 156.573 179.158M208.573 200.158C212.073 211.158 217.573 219.158 227.573 225.158C237.573 231.158 242.073 236.158 249.573 248.658M130.073 190.658C128.573 211.158 141.573 228.658 161.073 235.658C165.073 254.158 178.073 262.158 198.573 256.658C198.573 274.658 217.073 287.158 236.573 280.658C243.573 303.158 266.073 308.158 286.073 305.158C287.573 325.658 298.073 332.158 314.573 343.158M101.073 160.158C99.0729 139.158 102.073 122.158 120.573 107.658C122.073 87.6576 132.573 73.1577 150.573 60.1577C164.073 37.6577 179.573 28.6578 203.573 21.1578C217.573 12.6579 245.073 10.6579 270.073 19.6577M101.073 160.158C94.5729 182.658 95.5727 195.158 103.073 217.158C104.073 244.658 117.073 261.658 135.573 281.658C138.073 300.658 156.573 316.158 179.073 320.158M101.073 160.158C113.073 157.158 115.573 159.658 123.073 167.158M179.073 320.158C195.073 315.158 223.073 317.658 223.073 317.658M179.073 320.158C179.073 339.158 195.573 357.158 216.073 355.658M216.073 355.658C230.073 347.658 255.073 348.158 274.073 358.158M216.073 355.658C244.573 355.658 262.073 393.158 308.573 389.658M308.573 389.658C342.573 382.658 366.573 354.158 363.573 320.158M308.573 389.658C317.073 389.658 330.465 390.417 344.573 382.658C354.573 377.158 362.806 375.619 373.073 381.658C390.073 391.658 406.573 393.658 429.573 391.158C462.573 402.658 491.573 389.658 500.073 380.158C552.073 367.158 580.573 330.658 561.073 283.158C557.67 274.868 554.573 273.658 556.073 260.658M270.073 19.6577C283.573 17.6577 288.573 17.1577 300.073 21.6577C300.073 21.6577 315.284 28.4788 325.073 26.6577C346.573 22.6577 361.073 30.1577 376.573 45.1577C385.297 53.6007 392.296 57.3022 404.073 59.6577C421.573 63.1577 429.975 72.1275 441.573 85.6577C447.573 92.6577 450.203 97.7714 458.573 100.658C473.073 105.658 478.573 115.658 484.073 129.658C487.66 138.79 492.573 142.658 501.073 148.158C508.271 152.815 512.073 158.584 512.073 167.158M270.073 19.6577C252.073 34.6577 241.573 51.1577 243.073 76.6577M512.073 167.158C512.073 167.391 512.076 167.62 512.083 167.844M512.073 167.158C512.077 167.388 512.08 167.617 512.083 167.844M512.083 167.844C512.352 176.78 517.914 179.223 524.573 183.158C535.573 189.658 540.073 196.658 542.073 209.158C543.345 217.107 545.537 221.506 550.073 228.158C557.573 239.158 557.073 248.158 556.073 260.658M512.083 167.844C512.296 186.68 506.876 196.277 490.573 206.158M556.073 260.658C545.073 295.158 512.073 310.158 482.573 299.658M378.573 65.1577C368.573 75.1577 369.573 93.6577 398.573 87.1577M393.573 118.658C415.073 113.658 434.573 122.158 451.573 135.658M335.573 63.6577C305.573 96.1577 302.073 149.658 358.573 159.158M277.573 74.6577C263.573 116.658 292.573 183.158 309.073 183.158C339.573 183.158 349.361 191.886 362.073 205.658C368.073 212.158 372.728 215.745 380.573 220.158C404.573 233.658 409.073 256.658 407.073 274.158C406.27 281.185 406.114 286.252 409.573 292.658C423.073 317.658 421.573 341.158 400.573 359.658M383.073 164.658C397.218 173.504 407.287 175.039 423.573 178.658C437.073 181.658 441.969 189.158 441.073 202.158C439.073 231.158 466.573 271.658 517.073 233.158" stroke="#3A0078" stroke-width="8" stroke-linecap="round" stroke-linejoin="round"/>
<mask id="mask0_973_34185" style="mask-type:alpha" maskUnits="userSpaceOnUse" x="0" y="0" width="278" height="300">
<path d="M39.573 6.65743C30.573 28.1574 -4.92434 179.158 0.575662 204.158C8.52104 240.273 132.985 277.171 149.576 295.658C167.076 315.158 294.563 256.158 276.075 229.658C246.075 186.658 224.705 77.2328 248.075 45.658C260.722 28.5703 45.1094 -14.4758 39.573 6.65743Z" fill="#C6389A"/>
</mask>
<g mask="url(#mask0_973_34185)">
<path d="M252.371 140.602C173.559 134.691 133.631 65.2479 81.1177 93.3081C28.8862 121.218 12.972 184.351 65.1182 239.33C121.028 298.278 273.111 228.098 273.111 228.098" stroke="#FF8EC4" stroke-width="2" stroke-linecap="square"/>
<path d="M252.371 135.602C173.559 129.691 133.631 60.2479 81.1177 88.3081C28.8862 116.218 12.972 179.351 65.1182 234.33C121.028 293.278 273.111 223.098 273.111 223.098" stroke="#ED44FF" stroke-width="8" stroke-linecap="square"/>
<path d="M252.371 130.602C173.559 124.691 133.631 55.2479 81.1177 83.3081C28.8862 111.218 12.972 174.351 65.1182 229.33C121.028 288.278 273.111 218.098 273.111 218.098" stroke="#FF5BC7" stroke-width="2" stroke-linecap="square"/>
<path d="M252.371 125.602C173.559 119.691 133.631 50.2479 81.1177 78.3081C28.8862 106.218 12.972 169.351 65.1182 224.33C121.028 283.278 273.111 213.098 273.111 213.098" stroke="#9D44FF" stroke-width="8" stroke-linecap="square"/>
<path d="M252.371 120.602C173.559 114.691 133.631 45.2479 81.1177 73.3081C28.8862 101.218 12.972 164.351 65.1182 219.33C121.028 278.278 273.111 208.098 273.111 208.098" stroke="#9C78FE" stroke-width="2" stroke-linecap="square"/>
<path d="M252.371 115.602C173.559 109.691 133.631 40.2479 81.1177 68.3081C28.8862 96.2178 12.972 159.351 65.1182 214.33C121.028 273.278 273.111 203.098 273.111 203.098" stroke="#00B4FF" stroke-width="8" stroke-linecap="square"/>
<path d="M252.371 110.602C173.559 104.691 133.631 35.2479 81.1177 63.3081C28.8862 91.2178 12.972 154.351 65.1182 209.33C121.028 268.278 273.111 198.098 273.111 198.098" stroke="#00DBFB" stroke-width="2" stroke-linecap="square"/>
<path d="M252.371 105.602C173.559 99.6908 133.631 30.2479 81.1177 58.3081C28.8862 86.2178 12.972 149.351 65.1182 204.33C121.028 263.278 273.111 193.098 273.111 193.098" stroke="#00D229" stroke-width="8" stroke-linecap="square"/>
<path d="M252.371 100.602C173.559 94.6908 133.631 25.2479 81.1177 53.3081C28.8862 81.2178 12.972 144.351 65.1182 199.33C121.028 258.278 273.111 188.098 273.111 188.098" stroke="#AFED10" stroke-width="2" stroke-linecap="square"/>
<path d="M252.371 95.6023C173.559 89.6908 133.631 20.2479 81.1177 48.3081C28.8862 76.2178 12.972 139.351 65.1182 194.33C121.028 253.278 273.111 183.098 273.111 183.098" stroke="#FFEE00" stroke-width="8" stroke-linecap="square"/>
<path d="M252.371 90.6023C173.559 84.6908 133.631 15.2479 81.1177 43.3081C28.8862 71.2178 12.972 134.351 65.1182 189.33C121.028 248.278 273.111 178.098 273.111 178.098" stroke="#FFBE00" stroke-width="2" stroke-linecap="square"/>
<path d="M252.371 85.6023C173.559 79.6908 133.631 10.2479 81.1177 38.3081C28.8862 66.2178 12.972 129.351 65.1182 184.33C121.028 243.278 273.111 173.098 273.111 173.098" stroke="#FFA100" stroke-width="8" stroke-linecap="square"/>
<path d="M252.371 80.6023C173.559 74.6908 133.631 5.2479 81.1177 33.3081C28.8862 61.2178 12.972 124.351 65.1182 179.33C121.028 238.278 273.111 168.098 273.111 168.098" stroke="#FF8B06" stroke-width="2" stroke-linecap="square"/>
<path d="M252.371 75.6023C173.559 69.6908 133.631 0.247904 81.1177 28.3081C28.8862 56.2178 12.972 119.351 65.1182 174.33C121.028 233.278 273.111 163.098 273.111 163.098" stroke="#FF6766" stroke-width="8" stroke-linecap="square"/>
<path d="M252.371 70.6023C173.559 64.6908 133.631 -4.7521 81.1177 23.3081C28.8862 51.2178 12.972 114.351 65.1182 169.33C121.028 228.278 273.111 158.098 273.111 158.098" stroke="#FF8989" stroke-width="2" stroke-linecap="square"/>
<path d="M238.073 106.657C238.073 121.657 239.073 126.657 244.073 141.157M251.073 165.157C263.573 213.657 287.729 280.164 338.573 267.157C360.073 261.657 366.573 281.157 372.573 294.657M270.073 19.6572C252.073 34.6573 241.573 51.1572 243.073 76.6572" stroke="#3A0078" stroke-width="8" stroke-linecap="round" stroke-linejoin="round"/>
</g>
</svg>
