<svg width="487" height="372" viewBox="0 0 487 372" fill="none" xmlns="http://www.w3.org/2000/svg">
<path d="M68.5 48.5C91.5 27.5 119 24.5 143.5 26C155 16.5 165 8.5 188 11.5C206 -0.50001 235.5 3.99999 244.5 14.5C272 5.66071 299 21 307 43.5C330 41 347 62 352.5 72.5C366.5 72.5 390 97.5 390 111.5C411.5 113 423.5 139.426 423.5 148C448 151.5 451.5 177.5 446.5 192C462.5 197 470.5 216 466 228.5C478 234 490.5 261.5 475.5 286.5C480 321 462.5 338.5 407 346C398.5 355.5 369.81 375.878 336.81 364.378C313.81 366.878 297.31 364.878 280.31 354.878C270.044 348.838 261.81 350.378 251.81 355.878C237.702 363.637 224.31 362.878 215.81 362.878C169.31 366.378 151.81 328.877 123.31 328.877C102.81 330.377 86.3101 312.377 86.3101 293.377C63.81 289.377 45.31 273.877 42.81 254.877C24.31 234.877 11.31 217.877 10.31 190.377C2.81003 168.377 1.81019 155.877 8.31016 133.377C3 121.5 3.5 103 19 91.5C27.5 66 51.5 55.5 68.5 48.5Z" fill="#FF51A8"/>
<path d="M72 46.5C95 30 114.5 28.5 139 30C142 27.5 161 13 180.5 15C198.5 3 228 9.50001 237.5 17.5C265 8.66071 292 24 300 46.5C322.5 46 340 65 345.5 75.5C361 78.5 381.5 102 383 114.5C404.5 116 416.5 142.426 416.5 151C441 154.5 444.5 180.5 439.5 195C455.5 200 463.5 219 459 231.5C471 237 483.5 264.5 468.5 289.5C473 324 446 340.5 409.5 345.5" stroke="#FF7DBD" stroke-width="8" stroke-linecap="round" stroke-linejoin="round"/>
<path d="M8.31016 133.377C1.81019 155.877 2.81003 168.377 10.31 190.377C11.2305 215.689 19.9365 225.008 35.7422 241.927C37.1086 243.389 38.528 244.909 40 246.5C42.5 265.5 63.81 289.377 86.3101 293.377C86.3101 312.377 102.81 330.377 123.31 328.877C135.453 328.877 145.599 335.685 156.842 343.228C171.987 353.389 189.122 364.886 215.81 362.878C216.477 362.878 217.174 362.882 217.899 362.887H217.902C226.418 362.944 238.81 363.027 251.81 355.878C261.81 350.378 270.044 348.838 280.31 354.878C297.31 364.878 313.81 366.878 336.81 364.378C369.81 375.878 400 353.823 407 346C411.154 341.357 402.491 336.139 392 334.5C384.814 333.378 378.932 335.495 373.5 335C368.068 334.505 363.825 333.058 359.702 331.653C354.619 329.92 349.719 328.25 343 328.5C337.166 328.717 332.861 330.769 328.596 332.803C324.102 334.945 319.651 337.066 313.5 337C310.174 336.964 308.718 335.103 307.253 333.23C304.836 330.141 302.394 327.02 291.5 332C274 340 247.5 330.5 235.499 314C235.499 314 225.575 319.124 216.5 320.5C207.561 321.855 201.68 318.412 195.256 314.65C190.945 312.125 186.389 309.457 180.5 308C176.847 307.096 174.673 307.233 172.339 307.381C169.191 307.58 165.753 307.797 158 305.5C144.5 301.5 135.073 278 135.073 278C135.073 278 122.5 277 112.5 269.5C106.168 266.786 93.3381 266.187 90.6352 260.839C88.8558 257.318 87.1317 253.907 84.5 251.5C83.4809 250.568 82.3996 249.63 81.2982 248.675C76.9958 244.943 72.3885 235.947 69.9996 231C69.9996 231 53.5827 232.443 48.0002 224C43.9181 217.826 42.5002 208.5 42.5002 208.5C42.5002 208.5 20.5 205 22.5001 184C24.5003 163 27.5 174 27.5 174C25.4999 195 47.5001 198.5 47.5001 198.5C47.5001 198.5 48.918 207.826 53.0001 214C58.5826 222.443 74.9995 221 74.9995 221C72.3825 216.852 71.5253 212.425 70.6664 207.989C69.827 203.654 68.986 199.311 66.4996 195.214C62.9891 189.429 59.0719 184.595 55.3646 180.019C47.6332 170.478 45.8144 162.063 45.4995 148.5C45.3212 140.822 52.8157 136.834 55.2937 132.873C56.6975 130.629 58.0959 128.393 59 125.5C61.5 117.5 62.5 106.5 63.0001 98C55.5 106.5 23.5 124.5 18.5 90.5C-2.5 109 8.31016 133.377 8.31016 133.377Z" fill="#C6389A"/>
<path d="M135.073 47.7136C148.573 45.7137 153.573 45.2136 165.073 49.7136C165.073 49.7136 180.284 56.5347 190.073 54.7136C211.573 50.7136 226.073 58.2136 241.573 73.2136C250.297 81.6566 257.296 85.3582 269.073 87.7136C286.573 91.2136 294.976 100.183 306.573 113.714C312.573 120.714 315.203 125.827 323.573 128.714C338.073 133.714 343.573 143.714 349.073 157.714C352.661 166.846 357.573 170.714 366.073 176.214C373.271 180.871 377.073 186.64 377.073 195.214C377.073 204.714 382.747 207.18 389.573 211.214C396.566 215.346 400.931 219.68 403.698 225.5C405.284 228.836 406.344 232.66 407.073 237.214C408.345 245.163 410.538 249.562 415.073 256.214C422.573 267.214 422.073 276.214 421.073 288.714C420.08 301.129 399.698 314.381 380.395 318.419C380.263 318.446 380.131 318.473 380 318.5C365.354 321.47 357.057 313.457 342 314C328.256 314.496 321.487 322.404 306.573 320.5C294.029 318.898 283.987 308.997 271.5 308.5C257.527 307.943 247.878 315.721 235.5 314C213.752 310.976 205.562 302.204 184.5 296C164.554 290.125 151.522 290.719 135.073 278C119.043 265.605 107.296 261.574 92.9997 247.214C86.3251 240.509 80.174 229.201 74.9996 221C69.8252 212.799 71.5304 203.504 66.4997 195.214C55.6684 177.365 45.9656 168.567 45.4996 148.5C45.2203 136.473 57.9671 131.169 60.9997 119C63.1152 110.511 60.692 101.464 64.4999 96C75.3104 80.4882 92.6162 80.7693 107 70C119.365 60.742 121.573 49.7136 135.073 47.7136Z" fill="#2C194C"/>
<path fill-rule="evenodd" clip-rule="evenodd" d="M187.133 109.671C188.105 110.169 189.297 109.795 189.81 108.831L196.079 97.0599C196.426 96.4076 197.105 96 197.844 96H208.493C208.779 96 209.062 96.0618 209.323 96.1785C214.611 98.5433 219.882 100.082 225.186 103.746C225.907 104.244 226.18 105.171 225.883 105.996L222.231 116.152C221.998 116.798 222.114 117.519 222.536 118.06L226.428 123.043C226.807 123.529 227.389 123.812 228.004 123.812H243.429C244.09 123.812 244.71 124.138 245.072 124.691C248.906 130.545 250.777 135.942 252.515 142.291C252.742 143.119 252.407 143.998 251.692 144.472L242.794 150.369C242.235 150.74 241.899 151.366 241.899 152.036V166.893C241.899 167.676 242.356 168.388 243.07 168.713L252.188 172.864C252.989 173.228 253.461 174.074 253.325 174.944C252.315 181.395 250.456 186.276 247.615 192.217C247.285 192.907 246.585 193.343 245.821 193.343H233.118C232.536 193.343 231.982 193.597 231.602 194.038L223.265 203.716C222.794 204.263 222.654 205.02 222.898 205.699L226.515 215.755C226.819 216.599 226.525 217.541 225.777 218.037C222.614 220.138 216.691 223.752 213.232 225.569C212.951 225.717 212.64 225.791 212.323 225.791H199.487C198.574 225.791 197.777 225.173 197.549 224.289L195.089 214.711C194.862 213.827 194.065 213.209 193.152 213.209H188.997C188.154 213.209 187.401 213.738 187.115 214.532L183.541 224.468C183.256 225.262 182.502 225.789 181.658 225.807C176.263 225.925 172.222 226.563 166.633 223.697C165.994 223.369 165.61 222.699 165.61 221.981L165.61 205.191C165.61 204.425 165.173 203.726 164.483 203.392L153.739 198.179C153.467 198.047 153.169 197.979 152.866 197.979H134.882C134.28 197.979 133.693 197.711 133.366 197.205C129.779 191.653 137.309 187.761 136.726 180.782C136.658 179.964 136.962 179.133 137.64 178.67L145.343 173.411C145.888 173.038 146.215 172.42 146.215 171.759V156.066C146.215 155.364 145.848 154.714 145.247 154.353L136.383 149.012C135.683 148.59 135.333 147.782 135.338 146.965C135.383 140.23 127.483 136.179 130.19 130.074C130.464 129.456 131.106 129.098 131.782 129.077L152.034 128.467C152.453 128.455 152.859 128.31 153.192 128.054L164.829 119.115C165.321 118.737 165.61 118.151 165.61 117.529V98.331C165.61 97.2983 166.398 96.4331 167.427 96.3504C172.789 95.9198 175.796 96.0322 179.407 96.512C180.077 96.601 180.651 97.0318 180.935 97.6449L186.009 108.618C186.197 109.024 186.515 109.355 186.913 109.558L187.133 109.671ZM221.857 162.882C223.078 145.477 211.74 129.198 194.703 129.11C178.263 129.025 165.779 143.395 165.61 160.233C165.44 177.263 177.432 192.936 194.057 192.681C209.77 192.44 220.731 178.937 221.857 162.882Z" fill="#72819E" stroke="#72819E" stroke-width="3"/>
<path fill-rule="evenodd" clip-rule="evenodd" d="M174.366 107.454C174.55 107.744 174.869 107.92 175.212 107.92H189.598C189.956 107.92 190.287 107.728 190.465 107.418L196.297 97.2639C196.505 96.9021 196.916 96.7065 197.327 96.7794C203.512 97.8775 206.942 99.5839 212.278 103.552C212.599 103.79 212.744 104.198 212.649 104.586L210.346 114.021C210.267 114.346 210.356 114.69 210.583 114.936L220.789 126.005C221.047 126.284 221.441 126.394 221.805 126.287L229.606 124.004C230.001 123.889 230.428 124.028 230.677 124.356C235.285 130.43 236.866 134.256 239.654 140.96C239.833 141.388 239.693 141.884 239.317 142.156L229.382 149.339C229.122 149.527 228.968 149.828 228.968 150.149V164.325C228.968 164.664 229.14 164.98 229.425 165.164L240.721 172.472C241.045 172.681 241.22 173.06 241.167 173.443C240.207 180.393 238.83 184.911 235.83 191.197C235.608 191.663 235.064 191.879 234.581 191.697L223.795 187.627C223.406 187.48 222.968 187.589 222.693 187.901L211.207 200.903C210.993 201.146 210.909 201.477 210.982 201.792L213.947 214.543C214.038 214.938 213.883 215.349 213.551 215.583C208.186 219.367 204.605 221.375 198.103 224.125C197.639 224.321 197.101 224.139 196.85 223.703L191.112 213.711C190.934 213.401 190.603 213.209 190.245 213.209H174.081C173.654 213.209 173.274 213.48 173.135 213.883L169.789 223.594C169.62 224.087 169.098 224.366 168.594 224.233C162.295 222.564 158.016 220.913 152.011 217.536C151.637 217.326 151.441 216.899 151.524 216.478L153.872 204.453C153.935 204.131 153.835 203.798 153.606 203.563L143.527 193.24C143.207 192.912 142.703 192.844 142.307 193.076L134.67 197.545C134.245 197.795 133.699 197.695 133.391 197.31C128.772 191.522 126.78 187.557 125.032 180.101C124.938 179.701 125.102 179.285 125.441 179.054L134.141 173.113C134.414 172.926 134.577 172.617 134.577 172.287V155.501C134.577 155.15 134.393 154.825 134.093 154.644L124.165 148.663C123.815 148.452 123.629 148.048 123.697 147.645C124.926 140.369 126.422 136.236 130.32 129.735C130.544 129.362 130.984 129.179 131.407 129.281L141.119 131.622C141.471 131.706 141.841 131.595 142.087 131.329L153.586 118.931C153.826 118.673 153.912 118.308 153.813 117.97L150.283 105.918C150.168 105.527 150.303 105.105 150.625 104.854C156.121 100.576 159.835 98.6955 166.845 96.8452C167.264 96.7345 167.706 96.9106 167.938 97.2773L174.366 107.454ZM210.219 162.882C211.44 145.477 200.102 129.198 183.065 129.11C166.625 129.025 154.141 143.395 153.972 160.233C153.802 177.263 165.793 192.936 182.419 192.681C198.132 192.44 209.093 178.937 210.219 162.882Z" fill="#C1D2E0" stroke="#72819E" stroke-width="3"/>
<path d="M190.52 138.519C188.292 137.591 185.841 137.073 183.211 137.06C170.759 136.996 161.303 147.773 161.176 160.401C161.046 173.173 170.129 184.926 182.721 184.735C184.403 184.71 186.013 184.486 187.541 184.085C178.69 181.512 172.713 171.652 172.813 161.074C172.921 149.652 180.368 139.788 190.52 138.519Z" fill="#ABACB8"/>
<path d="M190.52 138.519C188.292 137.591 185.841 137.073 183.211 137.06C170.759 136.996 161.303 147.773 161.176 160.401C161.046 173.173 170.129 184.926 182.721 184.735C184.403 184.71 186.013 184.486 187.541 184.085M190.52 138.519C180.368 139.788 172.921 149.652 172.813 161.074C172.713 171.652 178.69 181.512 187.541 184.085M190.52 138.519C191.28 138.423 192.056 138.377 192.845 138.381C204.574 138.445 208.502 150.315 207.662 163.005C206.886 174.711 203.218 184.557 192.399 184.732C190.704 184.76 189.079 184.533 187.541 184.085" stroke="#72819E" stroke-width="3"/>
<path d="M190.52 138.519C188.292 137.591 185.841 137.073 183.211 137.06C170.759 136.996 161.303 147.773 161.176 160.401C161.046 173.173 170.129 184.926 182.721 184.735C184.403 184.71 186.013 184.486 187.541 184.085C178.69 181.512 172.713 171.652 172.813 161.074C172.921 149.652 180.368 139.788 190.52 138.519Z" fill="#ABACB8"/>
<path fill-rule="evenodd" clip-rule="evenodd" d="M183.065 129.11C200.101 129.198 211.44 145.477 210.219 162.882C209.093 178.937 198.132 192.44 182.419 192.681C165.793 192.936 153.801 177.263 153.972 160.233C154.141 143.395 166.625 129.025 183.065 129.11ZM203.775 162.387C204.7 149.335 196.113 137.126 183.21 137.06C170.758 136.996 161.303 147.773 161.175 160.401C161.046 173.173 170.128 184.926 182.72 184.735C194.621 184.555 202.922 174.428 203.775 162.387Z" fill="white"/>
<path fill-rule="evenodd" clip-rule="evenodd" d="M141.255 189.015C141.964 189.377 142.832 189.105 143.206 188.402L147.14 181.016C147.487 180.364 148.166 179.956 148.905 179.956H155.459C155.745 179.956 156.028 180.018 156.289 180.134C159.635 181.618 162.971 182.627 166.326 184.845C167.057 185.328 167.328 186.258 167.031 187.082L164.887 193.045C164.655 193.691 164.77 194.411 165.193 194.953L167.361 197.729C167.74 198.214 168.321 198.498 168.937 198.498H178.543C179.204 198.498 179.825 198.822 180.182 199.378C182.518 203.026 183.73 206.427 184.825 210.355C185.055 211.182 184.72 212.061 184.004 212.535L178.77 216.005C178.211 216.375 177.875 217.001 177.875 217.672V226.789C177.875 227.573 178.332 228.284 179.046 228.609L184.285 230.994C185.086 231.358 185.56 232.205 185.413 233.073C184.746 237.001 183.588 240.081 181.864 243.724C181.537 244.415 180.837 244.851 180.073 244.851H172.326C171.744 244.851 171.191 245.105 170.811 245.546L165.706 251.472C165.235 252.019 165.095 252.776 165.339 253.455L167.448 259.317C167.751 260.161 167.456 261.102 166.705 261.592C164.571 262.985 161.077 265.107 158.905 266.261C158.625 266.41 158.314 266.483 157.997 266.483H150.117C149.204 266.483 148.407 265.865 148.18 264.981L146.796 259.598C146.569 258.714 145.772 258.095 144.859 258.095H143.075C142.232 258.095 141.479 258.625 141.193 259.418L139.128 265.16C138.843 265.954 138.089 266.481 137.246 266.506C133.989 266.602 131.432 266.894 128.044 265.26C127.397 264.948 127.015 264.274 127.015 263.556L127.015 253.168C127.015 252.401 126.578 251.703 125.888 251.368L119.239 248.142C118.967 248.01 118.668 247.942 118.366 247.942H106.847C106.245 247.942 105.651 247.683 105.357 247.157C103.436 243.717 107.824 241.192 107.78 236.93C107.772 236.11 108.065 235.277 108.743 234.814L113.213 231.762C113.758 231.389 114.085 230.771 114.085 230.11V220.376C114.085 219.675 113.718 219.025 113.117 218.663L107.917 215.53C107.217 215.108 106.878 214.297 106.819 213.482C106.523 209.379 101.933 206.757 103.268 203.007C103.495 202.369 104.148 202.017 104.824 201.997L117.749 201.607C118.169 201.595 118.574 201.45 118.907 201.194L126.234 195.566C126.726 195.188 127.015 194.602 127.015 193.98V182.118C127.015 181.085 127.803 180.218 128.833 180.143C131.865 179.924 133.74 179.988 135.856 180.251C136.526 180.335 137.1 180.767 137.383 181.38L140.597 188.329C140.733 188.625 140.965 188.866 141.255 189.015V189.015ZM164.514 224.544C165.328 212.941 157.768 202.088 146.411 202.029C135.451 201.973 127.128 211.553 127.015 222.778C126.902 234.131 134.896 244.58 145.98 244.41C156.455 244.25 163.763 235.247 164.514 224.544Z" fill="#72819E" stroke="#72819E" stroke-width="2"/>
<path fill-rule="evenodd" clip-rule="evenodd" d="M132.756 187.437C132.939 187.727 133.258 187.903 133.601 187.903H142.816C143.174 187.903 143.504 187.711 143.683 187.401L147.359 180.999C147.567 180.637 147.979 180.441 148.389 180.517C152.302 181.238 154.56 182.356 157.951 184.859C158.272 185.096 158.419 185.505 158.324 185.893L156.883 191.796C156.804 192.122 156.892 192.465 157.119 192.711L163.663 199.807C163.92 200.087 164.314 200.196 164.679 200.089L169.462 198.69C169.857 198.574 170.285 198.713 170.532 199.042C173.443 202.914 174.509 205.432 176.278 209.685C176.456 210.113 176.317 210.609 175.941 210.881L169.669 215.415C169.409 215.603 169.255 215.905 169.255 216.226V225.324C169.255 225.664 169.427 225.98 169.712 226.164L176.914 230.823C177.238 231.032 177.413 231.411 177.359 231.794C176.734 236.209 175.84 239.16 173.96 243.147C173.74 243.614 173.196 243.829 172.713 243.647L166.022 241.122C165.633 240.975 165.194 241.084 164.919 241.395L157.528 249.763C157.314 250.005 157.23 250.336 157.304 250.651L159.19 258.767C159.282 259.162 159.126 259.574 158.794 259.807C155.392 262.195 153.041 263.514 148.948 265.258C148.485 265.455 147.948 265.273 147.697 264.836L144.114 258.597C143.935 258.287 143.605 258.095 143.247 258.095H132.901C132.475 258.095 132.095 258.366 131.956 258.77L129.903 264.727C129.733 265.22 129.212 265.501 128.709 265.365C124.743 264.299 121.96 263.218 118.16 261.098C117.785 260.889 117.589 260.461 117.671 260.04L119.157 252.43C119.22 252.107 119.121 251.775 118.891 251.54L112.476 244.969C112.156 244.641 111.652 244.573 111.256 244.805L106.636 247.509C106.211 247.758 105.665 247.659 105.359 247.272C102.45 243.591 101.147 240.978 100.016 236.245C99.9211 235.845 100.085 235.429 100.424 235.197L105.891 231.464C106.164 231.278 106.327 230.968 106.327 230.638V219.811C106.327 219.461 106.144 219.136 105.843 218.955L99.5796 215.181C99.2295 214.97 99.0425 214.566 99.1119 214.163C99.911 209.528 100.898 206.804 103.364 202.656C103.586 202.282 104.028 202.098 104.45 202.2L110.499 203.658C110.851 203.743 111.221 203.631 111.467 203.366L118.872 195.382C119.111 195.124 119.197 194.759 119.098 194.421L116.861 186.784C116.747 186.393 116.882 185.97 117.205 185.72C120.71 183.013 123.157 181.776 127.604 180.582C128.022 180.47 128.466 180.646 128.698 181.013L132.756 187.437ZM156.756 224.544C157.57 212.941 150.011 202.088 138.653 202.029C127.693 201.973 119.37 211.553 119.258 222.778C119.144 234.131 127.139 244.58 138.222 244.41C148.698 244.25 156.005 235.247 156.756 224.544Z" fill="#C1D2E0" stroke="#72819E" stroke-width="2"/>
<path d="M143.623 208.302C142.138 207.684 140.504 207.338 138.75 207.329C130.449 207.287 124.145 214.471 124.06 222.89C123.974 231.404 130.029 239.24 138.424 239.113C139.545 239.096 140.618 238.946 141.637 238.68C135.737 236.964 131.751 230.391 131.818 223.339C131.89 215.724 136.855 209.148 143.623 208.302Z" fill="#ABACB8"/>
<path d="M143.623 208.302C142.138 207.684 140.504 207.338 138.75 207.329C130.449 207.287 124.145 214.471 124.06 222.89C123.974 231.404 130.029 239.24 138.424 239.113C139.545 239.096 140.618 238.946 141.637 238.68M143.623 208.302C136.855 209.148 131.89 215.724 131.818 223.339C131.751 230.391 135.737 236.964 141.637 238.68M143.623 208.302C144.13 208.238 144.647 208.207 145.173 208.21C152.993 208.253 155.611 216.166 155.051 224.626C154.534 232.43 152.089 238.994 144.876 239.111C143.746 239.129 142.662 238.978 141.637 238.68" stroke="#72819E" stroke-width="2"/>
<path d="M143.623 208.302C142.138 207.684 140.504 207.338 138.75 207.329C130.449 207.287 124.145 214.471 124.06 222.89C123.974 231.404 130.029 239.24 138.424 239.113C139.545 239.096 140.618 238.946 141.637 238.68C135.737 236.964 131.751 230.391 131.818 223.339C131.89 215.724 136.855 209.148 143.623 208.302Z" fill="#ABACB8"/>
<path fill-rule="evenodd" clip-rule="evenodd" d="M138.653 202.029C150.011 202.088 157.57 212.941 156.756 224.544C156.005 235.247 148.698 244.25 138.222 244.41C127.138 244.58 119.144 234.131 119.258 222.778C119.37 211.553 127.693 201.973 138.653 202.029ZM152.46 224.214C153.077 215.512 147.352 207.373 138.749 207.329C130.448 207.287 124.145 214.471 124.059 222.89C123.973 231.404 130.028 239.24 138.423 239.113C146.357 238.993 151.891 232.241 152.46 224.214Z" fill="white"/>
<path fill-rule="evenodd" clip-rule="evenodd" d="M283.047 151.261C284.019 151.759 285.211 151.385 285.724 150.421L294.579 133.793C294.926 133.141 295.605 132.734 296.344 132.734H311.088C311.374 132.734 311.657 132.795 311.917 132.912C319.147 136.159 326.351 138.222 333.603 143.342C334.319 143.848 334.593 144.774 334.297 145.599L329.136 159.949C328.903 160.595 329.019 161.316 329.441 161.857L335.057 169.048C335.436 169.533 336.017 169.817 336.633 169.817H357.876C358.537 169.817 359.157 170.142 359.521 170.693C364.859 178.754 367.382 186.143 369.765 194.916C369.99 195.745 369.656 196.624 368.941 197.098L356.379 205.424C355.82 205.794 355.484 206.42 355.484 207.091V227.686C355.484 228.47 355.942 229.182 356.655 229.506L369.652 235.423C370.453 235.788 370.924 236.635 370.793 237.505C369.444 246.486 366.888 253.157 362.926 261.398C362.594 262.087 361.895 262.525 361.13 262.525H343.471C342.888 262.525 342.335 262.778 341.955 263.219L330.385 276.65C329.914 277.197 329.774 277.954 330.018 278.633L335.144 292.883C335.448 293.727 335.155 294.668 334.411 295.168C330.277 297.945 321.865 303.088 317.119 305.568C316.839 305.714 316.528 305.788 316.211 305.788H298.418C297.505 305.788 296.708 305.17 296.481 304.286L292.942 290.515C292.715 289.631 291.918 289.013 291.005 289.013H284.48C283.637 289.013 282.884 289.542 282.598 290.336L277.516 304.465C277.23 305.259 276.476 305.786 275.633 305.801C268.091 305.93 262.58 306.93 254.786 302.817C254.151 302.482 253.766 301.813 253.766 301.095L253.766 277.904C253.766 277.138 253.329 276.439 252.639 276.105L237.801 268.906C237.529 268.774 237.23 268.705 236.928 268.705H212.478C211.876 268.705 211.296 268.439 210.954 267.944C205.665 260.276 216.37 255.03 215.208 245.327C215.111 244.512 215.421 243.679 216.099 243.216L227.034 235.749C227.579 235.377 227.906 234.758 227.906 234.098V212.445C227.906 211.743 227.539 211.093 226.938 210.731L214.411 203.184C213.71 202.762 213.355 201.953 213.392 201.136C213.821 191.761 202.577 186.296 206.694 177.834C206.99 177.225 207.624 176.868 208.301 176.848L235.879 176.017C236.299 176.004 236.704 175.86 237.038 175.604L252.985 163.354C253.478 162.975 253.766 162.389 253.766 161.768V135.234C253.766 134.201 254.554 133.337 255.583 133.251C263.295 132.603 267.408 132.766 272.521 133.465C273.19 133.556 273.764 133.986 274.047 134.599L281.061 149.766C281.249 150.172 281.567 150.503 281.965 150.707L283.047 151.261ZM328.762 221.91C330.39 198.703 315.272 176.998 292.557 176.88C270.637 176.767 253.991 195.927 253.766 218.378C253.539 241.084 269.528 261.981 291.695 261.642C312.646 261.321 327.26 243.316 328.762 221.91Z" fill="#72819E" stroke="#72819E" stroke-width="4"/>
<path fill-rule="evenodd" clip-rule="evenodd" d="M265.539 148.16C265.722 148.45 266.042 148.626 266.385 148.626H285.943C286.301 148.626 286.632 148.435 286.81 148.124L294.797 134.218C295.004 133.856 295.417 133.661 295.828 133.733C304.286 135.207 308.884 137.5 316.164 142.932C316.484 143.171 316.631 143.58 316.537 143.968L313.372 156.935C313.292 157.26 313.381 157.604 313.608 157.85L327.478 172.892C327.736 173.172 328.13 173.281 328.494 173.174L339.312 170.009C339.707 169.893 340.135 170.034 340.385 170.362C346.691 178.639 348.784 183.767 352.593 192.923C352.771 193.351 352.632 193.848 352.256 194.12L338.657 203.952C338.397 204.14 338.243 204.441 338.243 204.762V224.014C338.243 224.354 338.415 224.67 338.7 224.854L354.091 234.81C354.415 235.02 354.589 235.4 354.537 235.783C353.241 245.27 351.382 251.35 347.26 259.938C347.037 260.404 346.494 260.619 346.011 260.437L331.131 254.822C330.742 254.675 330.303 254.784 330.028 255.095L314.448 272.734C314.234 272.976 314.15 273.307 314.223 273.622L318.265 291.009C318.357 291.404 318.199 291.816 317.868 292.05C310.539 297.231 305.734 299.926 296.818 303.682C296.354 303.877 295.816 303.695 295.565 303.258L287.672 289.515C287.494 289.204 287.163 289.013 286.805 289.013H264.823C264.396 289.013 264.016 289.283 263.877 289.687L259.238 303.15C259.068 303.642 258.548 303.922 258.043 303.79C249.407 301.519 243.638 299.301 235.427 294.666C235.053 294.455 234.856 294.027 234.938 293.606L238.148 277.166C238.211 276.844 238.112 276.511 237.882 276.276L224.141 262.201C223.82 261.872 223.316 261.805 222.92 262.037L212.266 268.272C211.841 268.521 211.295 268.422 210.986 268.037C204.653 260.141 201.977 254.829 199.611 244.649C199.518 244.249 199.681 243.831 200.02 243.6L211.952 235.452C212.225 235.265 212.388 234.956 212.388 234.626V211.88C212.388 211.529 212.205 211.204 211.904 211.023L198.313 202.834C197.963 202.624 197.777 202.218 197.844 201.815C199.503 191.898 201.507 186.36 206.837 177.507C207.061 177.134 207.503 176.949 207.925 177.051L221.301 180.275C221.653 180.359 222.023 180.248 222.269 179.983L237.863 163.17C238.102 162.911 238.188 162.546 238.089 162.208L233.266 145.742C233.152 145.351 233.288 144.927 233.61 144.676C241.095 138.828 246.072 136.306 255.644 133.799C256.064 133.69 256.508 133.865 256.74 134.232L265.539 148.16ZM313.245 221.91C314.873 198.703 299.755 176.998 277.04 176.88C255.12 176.767 238.474 195.927 238.249 218.378C238.021 241.084 254.011 261.981 276.178 261.642C297.128 261.321 311.743 243.316 313.245 221.91Z" fill="#C1D2E0" stroke="#72819E" stroke-width="4"/>
<path d="M286.978 189.425C284.008 188.189 280.74 187.498 277.232 187.48C260.63 187.395 248.023 201.764 247.852 218.602C247.68 235.63 259.79 251.302 276.579 251.048C278.822 251.014 280.969 250.715 283.006 250.181C271.205 246.75 263.235 233.603 263.369 219.499C263.513 204.27 273.443 191.117 286.978 189.425Z" fill="#ABACB8"/>
<path d="M286.978 189.425C284.008 188.189 280.74 187.498 277.232 187.48C260.63 187.395 248.023 201.764 247.852 218.602C247.68 235.63 259.79 251.302 276.579 251.048C278.822 251.014 280.969 250.715 283.006 250.181M286.978 189.425C273.443 191.117 263.513 204.27 263.369 219.499C263.235 233.603 271.205 246.75 283.006 250.181M286.978 189.425C287.992 189.298 289.026 189.236 290.077 189.242C305.717 189.327 310.955 205.153 309.834 222.074C308.8 237.682 303.909 250.809 289.484 251.044C287.224 251.08 285.057 250.777 283.006 250.181" stroke="#72819E" stroke-width="4"/>
<path d="M286.978 189.425C284.008 188.189 280.74 187.498 277.232 187.48C260.63 187.395 248.023 201.764 247.852 218.602C247.68 235.63 259.79 251.302 276.579 251.048C278.822 251.014 280.969 250.715 283.006 250.181C271.205 246.75 263.235 233.603 263.369 219.499C263.513 204.27 273.443 191.117 286.978 189.425Z" fill="#ABACB8"/>
<path fill-rule="evenodd" clip-rule="evenodd" d="M277.04 176.88C299.755 176.998 314.873 198.703 313.245 221.91C311.743 243.316 297.129 261.321 276.178 261.642C254.011 261.981 238.022 241.084 238.249 218.378C238.474 195.927 255.12 176.767 277.04 176.88ZM304.654 221.25C305.887 203.846 294.436 187.568 277.232 187.48C260.63 187.395 248.023 201.764 247.853 218.602C247.68 235.63 259.79 251.302 276.58 251.048C292.447 250.807 303.516 237.304 304.654 221.25Z" fill="white"/>
<path d="M165.073 49.7136C159 47 155 46 147 46C147 46 163.5 25.5 174 27.5C179.5 28.5476 179.983 35.7851 186 36C200 36.5 216 32 224.5 33C241.573 35.0086 240 52 241 57C241.996 61.9812 250.5 73.347 261 74C269.536 74.5309 276.5 64.5 284 64.5C292 64.5 296.5 73 301 76.5C305.269 79.8204 311.545 79.3636 316 80C326.5 81.5 330.231 100.838 336.5 110C343 119.5 354.5 123 361 128C367.332 132.871 366.5 154 371 157.714C378.518 163.917 386.5 163.5 392.5 168.5C396.735 172.029 398.5 182.5 398.5 182.5C398.5 182.5 404.576 183.197 408.5 186C419 193.5 414.59 208 421 216.5C424.5 221.141 430.902 223.031 437 230C444 238 438 245.5 440 255C442.243 265.654 453.957 265.4 455 280C456 294 444 291.8 441 299C438 306.2 420.073 301.214 421.073 288.714C422.073 276.214 422.573 267.214 415.073 256.214C410.538 249.562 408.345 245.163 407.073 237.214C406.345 232.66 405.284 228.836 403.698 225.5C400.932 219.68 396.566 215.346 389.573 211.214C382.747 207.18 377.073 204.714 377.073 195.214C377.073 186.64 373.272 180.871 366.073 176.214C357.573 170.714 352.661 166.846 349.073 157.714C343.573 143.714 338.073 133.714 323.573 128.714C315.203 125.827 312.573 120.714 306.573 113.714C294.976 100.183 286.573 91.2136 269.073 87.7136C257.296 85.3582 250.298 81.6566 241.573 73.2136C226.073 58.2136 211.573 50.7136 190.073 54.7136C180.285 56.5347 165.073 49.7136 165.073 49.7136Z" fill="#C6389A"/>
<path d="M190.073 54.7136C180.284 56.5347 165.073 49.7136 165.073 49.7136C153.573 45.2136 148.573 45.7137 135.073 47.7136C121.573 49.7136 119.365 60.742 107 70C92.6162 80.7693 75.3104 80.4882 64.4999 96M190.073 54.7136C211.573 50.7136 226.073 58.2136 241.573 73.2136C250.297 81.6566 257.296 85.3582 269.073 87.7136C286.573 91.2136 294.976 100.183 306.573 113.714C312.573 120.714 315.203 125.827 323.573 128.714M190.073 54.7136C180.5 51.5 175.981 37.1089 182 29M323.573 128.714C338.073 133.714 343.573 143.714 349.073 157.714C352.661 166.846 357.573 170.714 366.073 176.214C373.271 180.871 377.073 186.64 377.073 195.214C377.073 204.714 382.747 207.18 389.573 211.214C396.566 215.346 400.931 219.68 403.698 225.5M323.573 128.714C315.5 123 306.573 118 312 94.5M239.5 58C245 84 263.5 89.5 281 81.5M352.5 132.5C344.5 164 362 175 380 174M398.5 191C391 213 401.5 219.5 403.698 225.5M403.698 225.5C405.284 228.836 406.344 232.66 407.073 237.214C408.345 245.163 410.538 249.562 415.073 256.214C422.573 267.214 422.073 276.214 421.073 288.714C420.073 301.214 399.419 314.562 380 318.5M425.5 233.5C409 262 428.5 277.5 438.5 280.5M64.4999 96C60.692 101.464 63.1152 110.511 60.9997 119C57.9671 131.169 45.2203 136.473 45.4996 148.5C45.9656 168.567 55.6684 177.365 66.4997 195.214C71.5304 203.504 69.8252 212.799 74.9996 221M64.4999 96C64.4999 96 53.5001 110.5 35.5001 110.5M135.073 278C119.043 265.605 107.296 261.574 92.9997 247.214C86.3251 240.509 80.1741 229.201 74.9996 221M135.073 278C151.522 290.719 164.554 290.125 184.5 296C205.562 302.204 213.752 310.976 235.5 314M135.073 278C135.073 278 137 296 157.5 305.5M135.073 278C135.073 278 111.5 266 98.0001 270.5M235.5 314C247.878 315.721 257.527 307.943 271.5 308.5C283.987 308.997 294.029 318.898 306.573 320.5C321.487 322.404 328.256 314.496 342 314C357.057 313.457 365.354 321.47 380 318.5M235.5 314C247.5 330.5 274 340 291.5 332M380 318.5C380 318.5 403.927 313 408.5 333.5M74.9996 221C74.9996 221 58.5827 222.443 53.0002 214C48.9181 207.826 47.5002 198.5 47.5002 198.5C47.5002 198.5 25.5 195 27.5001 174" stroke="#3A0078" stroke-width="8" stroke-linecap="round" stroke-linejoin="round"/>
<path d="M68.5 48.5C91.5 27.5 119 24.5 143.5 26C155 16.5 165 8.5 188 11.5C206 -0.50001 235.5 3.99999 244.5 14.5M68.5 48.5C51.5 55.5 27.5 66 19 91.5C3.5 103 3 121.5 8.31016 133.377M68.5 48.5C68.5 48.5 85 45 94.5 52.5M8.31016 133.377C1.81019 155.877 2.81003 168.377 10.31 190.377C11.31 217.877 21.4999 226.5 40 246.5M8.31016 133.377C8.31016 133.377 13.5 149.5 30 155.5M40 246.5C42.5 265.5 63.81 289.377 86.3101 293.377C86.3101 312.377 102.81 330.377 123.31 328.877M40 246.5C40 246.5 61.5 263.5 79 259.5M123.31 328.877C151.81 328.877 169.31 366.378 215.81 362.878C224.31 362.878 237.702 363.637 251.81 355.878C261.81 350.378 270.044 348.838 280.31 354.878C297.31 364.878 313.81 366.878 336.81 364.378M123.31 328.877C123.31 328.877 166.5 316.5 192 335M244.5 14.5C272 5.66071 299 21 307 43.5M244.5 14.5C249 22 249 34.5 249 34.5M307 43.5C330 41 347 62 352.5 72.5M307 43.5C310.5 50.5 311 62 311 62M352.5 72.5C366.5 72.5 390 97.5 390 111.5M352.5 72.5C356 83 353.5 97 353.5 97M390 111.5C411.5 113 423.5 139.426 423.5 148M390 111.5C393 121 391.5 134 391.5 134M423.5 148C448 151.5 451.5 177.5 446.5 192M423.5 148C423.5 148 426 165.5 415.5 180.5M446.5 192C462.5 197 470.5 216 466 228.5M446.5 192C446.5 192 444 202.5 435 211M466 228.5C478 234 490.5 261.5 475.5 286.5M466 228.5C466 228.5 458 242.5 445 249M475.5 286.5C480 321 462.5 338.5 407 346C398.5 355.5 369.81 375.878 336.81 364.378M475.5 286.5C475.5 286.5 461.5 298 451 298.5M336.81 364.378C336.81 364.378 356 355.878 357.5 343" stroke="#3A0078" stroke-width="8" stroke-linecap="round" stroke-linejoin="round"/>
</svg>
