<svg width="483" height="371" viewBox="0 0 483 371" fill="none" xmlns="http://www.w3.org/2000/svg">
<path d="M56.5275 244.779C29.5229 252.698 26.7692 239.726 29.2104 234.855C32.8931 231.132 42.1746 223.266 49.8393 221.584L56.5275 244.779Z" fill="#FFDD00"/>
<path d="M56.5275 244.779C29.5229 252.698 26.7692 239.726 29.2104 234.855C32.8931 231.132 42.1746 223.266 49.8393 221.584L56.5275 244.779Z" fill="url(#paint0_linear)"/>
<path d="M56.5275 244.779C29.5229 252.698 26.7692 239.726 29.2104 234.855C32.8931 231.132 42.1746 223.266 49.8393 221.584M56.5275 244.779C55.1396 240.203 51.8588 229.158 49.8393 221.584M56.5275 244.779L49.8393 221.584" stroke="#FFDE3A" stroke-width="4"/>
<g filter="url(#filter0_d)">
<path d="M56.1558 245.161C30.4885 252.549 27.855 240.383 30.1704 235.819C33.6676 232.334 42.4834 224.971 49.7692 223.404M56.1558 245.161C54.8307 240.869 51.6983 230.508 49.7692 223.404M56.1558 245.161L49.7692 223.404" stroke="#FFDE3A" stroke-width="4"/>
</g>
<path d="M413.66 181.5C413.66 276.072 333.127 353.5 232.823 353.5C132.519 353.5 51.986 276.072 51.986 181.5C51.986 86.9276 132.519 9.5 232.823 9.5C333.127 9.5 413.66 86.9276 413.66 181.5Z" fill="#361464" stroke="#4F3192" stroke-width="19"/>
<g filter="url(#filter1_d)">
<path d="M413.66 181.5C413.66 276.072 333.127 353.5 232.823 353.5C132.519 353.5 51.986 276.072 51.986 181.5C51.986 86.9276 132.519 9.5 232.823 9.5C333.127 9.5 413.66 86.9276 413.66 181.5Z" stroke="#4F3192" stroke-width="19"/>
</g>
<g filter="url(#filter2_d)">
<path d="M187.878 76.213C183.076 71.7841 184.931 66.0225 104.651 67.3812L56.778 123.09C94.0947 123.542 180.864 137.12 193.033 123.09C204.817 109.502 197.452 85.0448 187.878 76.213Z" fill="#4F3192"/>
<path d="M246.799 47H338.126C352.611 56.7377 379.666 76.213 372.006 76.213C362.431 76.213 307.929 78.2509 257.846 76.213C215.391 74.4855 229.859 49.7173 246.799 47Z" fill="#4F3192"/>
<path d="M330.761 133.959C307.929 135.318 271.84 133.96 265.212 123.09C258.726 112.454 279.741 110.924 348.956 113.409C349.218 113.412 349.502 113.422 349.806 113.439C354.708 113.719 364.793 115.924 372.006 123.09C381.581 132.601 363.905 133.959 330.761 133.959Z" fill="#4F3192"/>
<path d="M312.348 166.569H411.778V191.706C372.743 192.838 292.757 193.336 285.097 186.271C275.523 177.439 297.618 166.569 312.348 166.569Z" fill="#4F3192"/>
<path d="M257.846 218.881C257.846 210.728 262.266 202.576 246.799 191.706C246.505 191.5 246.443 191.118 246.268 190.834C229.859 174.042 102.442 166.569 95.0767 180.157C95.0767 182.195 79.8076 197.147 95.0767 210.728C115.699 229.071 131.166 227.033 179.039 229.071C226.913 231.109 257.846 227.033 257.846 218.881Z" fill="#4F3192"/>
<path d="M221.021 294.97C224.703 285.459 208.5 270.513 139.268 268.475H82.556C86.7295 277.307 98.7593 295.786 113.49 299.046C131.902 303.123 217.338 304.481 221.021 294.97Z" fill="#4F3192"/>
<path d="M356.539 246.735H399.257L391.892 268.475C376.671 270.513 344.608 272.687 338.126 265.078C330.025 255.567 352.12 246.735 356.539 246.735Z" fill="#4F3192"/>
<path d="M262.266 313.313C263.739 309.916 268.158 307.199 297.618 307.199C300.073 307.199 305.278 308.422 306.456 313.313C307.929 319.428 297.618 319.428 285.097 320.786C272.577 322.145 260.792 316.71 262.266 313.313Z" fill="#4F3192"/>
</g>
<path d="M413.66 181.5C413.66 276.072 333.127 353.5 232.823 353.5C132.519 353.5 51.986 276.072 51.986 181.5C51.986 86.9276 132.519 9.5 232.823 9.5C333.127 9.5 413.66 86.9276 413.66 181.5Z" stroke="#4F3192" stroke-width="19"/>
<g filter="url(#filter3_d)">
<path d="M159.439 253.594C159.439 254.521 159.262 255.396 158.908 256.219C158.564 257.031 158.085 257.745 157.47 258.359C156.866 258.964 156.153 259.443 155.33 259.797C154.517 260.141 153.647 260.312 152.72 260.312C151.887 260.312 151.085 260.167 150.314 259.875C149.554 259.583 148.866 259.156 148.252 258.594C147.637 259.156 146.944 259.583 146.173 259.875C145.403 260.167 144.601 260.312 143.767 260.312C142.84 260.312 141.965 260.141 141.142 259.797C140.33 259.443 139.616 258.964 139.002 258.359C138.397 257.745 137.918 257.031 137.564 256.219C137.22 255.396 137.048 254.521 137.048 253.594V237.594H141.533V253.594C141.533 253.906 141.59 254.203 141.705 254.484C141.819 254.755 141.976 254.995 142.173 255.203C142.382 255.401 142.621 255.557 142.892 255.672C143.163 255.786 143.455 255.844 143.767 255.844C144.08 255.844 144.371 255.786 144.642 255.672C144.913 255.557 145.147 255.401 145.345 255.203C145.554 254.995 145.715 254.755 145.83 254.484C145.944 254.203 146.002 253.906 146.002 253.594V237.594H150.486V253.594C150.486 253.906 150.543 254.203 150.658 254.484C150.772 254.755 150.929 254.995 151.127 255.203C151.335 255.401 151.575 255.557 151.845 255.672C152.116 255.786 152.408 255.844 152.72 255.844C153.033 255.844 153.325 255.786 153.595 255.672C153.866 255.557 154.101 255.401 154.298 255.203C154.507 254.995 154.668 254.755 154.783 254.484C154.908 254.203 154.97 253.906 154.97 253.594V237.594H159.439V253.594ZM178.814 260H163.455V237.594H178.814V242.078H167.939V246.562H175.298V251.047H167.939V255.516H178.814V260ZM197.642 260H181.955V237.594H186.439V255.516H197.642V260ZM215.673 260H199.986V237.594H204.47V255.516H215.673V260ZM222.502 260H218.017V237.594H222.502V260ZM244.595 260H239.798L231.158 245.25V260H226.673V237.594H231.47L240.111 252.359V237.594H244.595V260ZM266.595 257.734C265.554 258.62 264.392 259.302 263.111 259.781C261.83 260.25 260.496 260.484 259.111 260.484C258.048 260.484 257.022 260.344 256.033 260.062C255.054 259.792 254.137 259.406 253.283 258.906C252.429 258.396 251.647 257.792 250.939 257.094C250.231 256.385 249.627 255.604 249.127 254.75C248.627 253.885 248.236 252.958 247.955 251.969C247.684 250.979 247.548 249.953 247.548 248.891C247.548 247.828 247.684 246.807 247.955 245.828C248.236 244.849 248.627 243.932 249.127 243.078C249.627 242.214 250.231 241.432 250.939 240.734C251.647 240.026 252.429 239.422 253.283 238.922C254.137 238.422 255.054 238.036 256.033 237.766C257.022 237.484 258.048 237.344 259.111 237.344C260.496 237.344 261.83 237.583 263.111 238.062C264.392 238.531 265.554 239.208 266.595 240.094L264.252 244C263.575 243.312 262.793 242.776 261.908 242.391C261.022 241.995 260.09 241.797 259.111 241.797C258.132 241.797 257.21 241.984 256.345 242.359C255.491 242.734 254.741 243.245 254.095 243.891C253.45 244.526 252.939 245.276 252.564 246.141C252.189 246.995 252.002 247.911 252.002 248.891C252.002 249.88 252.189 250.807 252.564 251.672C252.939 252.536 253.45 253.292 254.095 253.938C254.741 254.583 255.491 255.094 256.345 255.469C257.21 255.844 258.132 256.031 259.111 256.031C259.673 256.031 260.22 255.964 260.752 255.828C261.283 255.693 261.788 255.505 262.267 255.266V248.891H266.595V257.734ZM279.142 260H274.673V242.078H267.939V237.594H285.861V242.078H279.142V260ZM309.47 248.891C309.47 249.953 309.33 250.979 309.048 251.969C308.778 252.948 308.392 253.87 307.892 254.734C307.392 255.589 306.788 256.37 306.08 257.078C305.371 257.786 304.59 258.396 303.736 258.906C302.882 259.406 301.96 259.792 300.97 260.062C299.981 260.344 298.955 260.484 297.892 260.484C296.83 260.484 295.804 260.344 294.814 260.062C293.835 259.792 292.913 259.406 292.048 258.906C291.194 258.396 290.413 257.786 289.705 257.078C288.996 256.37 288.387 255.589 287.877 254.734C287.377 253.87 286.986 252.948 286.705 251.969C286.434 250.979 286.298 249.953 286.298 248.891C286.298 247.828 286.434 246.802 286.705 245.812C286.986 244.823 287.377 243.901 287.877 243.047C288.387 242.193 288.996 241.411 289.705 240.703C290.413 239.995 291.194 239.391 292.048 238.891C292.913 238.391 293.835 238.005 294.814 237.734C295.804 237.453 296.83 237.312 297.892 237.312C298.955 237.312 299.981 237.453 300.97 237.734C301.96 238.005 302.882 238.391 303.736 238.891C304.59 239.391 305.371 239.995 306.08 240.703C306.788 241.411 307.392 242.193 307.892 243.047C308.392 243.901 308.778 244.823 309.048 245.812C309.33 246.802 309.47 247.828 309.47 248.891ZM305.017 248.891C305.017 247.911 304.83 246.99 304.455 246.125C304.08 245.25 303.569 244.495 302.923 243.859C302.288 243.214 301.533 242.703 300.658 242.328C299.793 241.953 298.871 241.766 297.892 241.766C296.903 241.766 295.976 241.953 295.111 242.328C294.246 242.703 293.491 243.214 292.845 243.859C292.2 244.495 291.689 245.25 291.314 246.125C290.939 246.99 290.752 247.911 290.752 248.891C290.752 249.87 290.939 250.792 291.314 251.656C291.689 252.51 292.2 253.26 292.845 253.906C293.491 254.552 294.246 255.062 295.111 255.438C295.976 255.812 296.903 256 297.892 256C298.871 256 299.793 255.812 300.658 255.438C301.533 255.062 302.288 254.552 302.923 253.906C303.569 253.26 304.08 252.51 304.455 251.656C304.83 250.792 305.017 249.87 305.017 248.891ZM330.345 260H325.548L316.908 245.25V260H312.423V237.594H317.22L325.861 252.359V237.594H330.345V260Z" fill="#FFDD00"/>
</g>
<path d="M29.4639 234.689C29.24 234.796 29.013 234.909 28.7852 235.028C20.7952 197.889 21.0089 175.823 24.2198 161.701C27.0787 149.128 32.2983 142.736 36.8867 137.118C37.5899 136.257 38.2783 135.414 38.941 134.57C38.9886 134.543 39.0611 134.505 39.1643 134.458C39.5428 134.285 40.1388 134.076 41.003 133.851C42.7258 133.402 45.1734 132.976 48.3381 132.587C54.6466 131.813 63.4386 131.23 74.1902 130.818C95.6729 129.996 124.711 129.868 156.766 130.207C220.865 130.883 296.861 133.42 348.233 135.961L351.53 136.124L351.53 132.886L351.53 94.9446L456.395 170.722L351.286 257.393C351.256 254.44 351.333 251.235 351.425 247.381L351.429 247.227C351.585 240.709 351.776 232.478 351.529 220.828L351.499 219.386L350.319 218.562C349.494 217.986 348.445 217.609 347.456 217.332C346.407 217.039 345.154 216.787 343.743 216.565C340.918 216.121 337.251 215.766 332.897 215.488C324.178 214.93 312.475 214.663 298.772 214.64C271.354 214.596 235.755 215.534 199.63 217.131C163.504 218.728 126.813 220.987 97.2071 223.589C82.4073 224.889 69.3497 226.278 59.0065 227.717C48.9587 229.115 41.1624 230.598 36.8665 232.195C34.8445 232.659 31.9204 233.518 29.4639 234.689Z" fill="#FFDD00" stroke="#FFDD00" stroke-width="6"/>
<g filter="url(#filter4_d)">
<path d="M29.4639 234.689C29.24 234.796 29.013 234.909 28.7852 235.028C20.7952 197.889 21.0089 175.823 24.2198 161.701C27.0787 149.128 32.2983 142.736 36.8867 137.118C37.5899 136.257 38.2783 135.414 38.941 134.57C38.9886 134.543 39.0611 134.505 39.1643 134.458C39.5428 134.285 40.1388 134.076 41.003 133.851C42.7258 133.402 45.1734 132.976 48.3381 132.587C54.6466 131.813 63.4386 131.23 74.1902 130.818C95.6729 129.996 124.711 129.868 156.766 130.207C220.865 130.883 296.861 133.42 348.233 135.961L351.53 136.124L351.53 132.886L351.53 94.9446L456.395 170.722L351.286 257.393C351.256 254.44 351.333 251.235 351.425 247.381L351.429 247.227C351.585 240.709 351.776 232.478 351.529 220.828L351.499 219.386L350.319 218.562C349.494 217.986 348.445 217.609 347.456 217.332C346.407 217.039 345.154 216.787 343.743 216.565C340.918 216.121 337.251 215.766 332.897 215.488C324.178 214.93 312.475 214.663 298.772 214.64C271.354 214.596 235.755 215.534 199.63 217.131C163.504 218.728 126.813 220.987 97.2071 223.589C82.4073 224.889 69.3497 226.278 59.0065 227.717C48.9587 229.115 41.1624 230.598 36.8665 232.195C34.8445 232.659 31.9204 233.518 29.4639 234.689Z" stroke="#FFDD00" stroke-width="6"/>
</g>
<g filter="url(#filter5_i)">
<path d="M118.244 177.004C118.244 179.395 117.927 181.703 117.294 183.93C116.685 186.133 115.818 188.207 114.693 190.152C113.568 192.074 112.208 193.832 110.615 195.426C109.021 197.02 107.263 198.391 105.341 199.539C103.419 200.664 101.345 201.531 99.1187 202.141C96.8921 202.773 94.5835 203.09 92.1929 203.09C89.8022 203.09 87.4937 202.773 85.2671 202.141C83.064 201.531 80.9897 200.664 79.0444 199.539C77.1226 198.391 75.3647 197.02 73.771 195.426C72.1772 193.832 70.8062 192.074 69.6577 190.152C68.5327 188.207 67.6538 186.133 67.021 183.93C66.4116 181.703 66.1069 179.395 66.1069 177.004C66.1069 174.613 66.4116 172.305 67.021 170.078C67.6538 167.852 68.5327 165.777 69.6577 163.855C70.8062 161.934 72.1772 160.176 73.771 158.582C75.3647 156.988 77.1226 155.629 79.0444 154.504C80.9897 153.379 83.064 152.512 85.2671 151.902C87.4937 151.27 89.8022 150.953 92.1929 150.953C94.5835 150.953 96.8921 151.27 99.1187 151.902C101.345 152.512 103.419 153.379 105.341 154.504C107.263 155.629 109.021 156.988 110.615 158.582C112.208 160.176 113.568 161.934 114.693 163.855C115.818 165.777 116.685 167.852 117.294 170.078C117.927 172.305 118.244 174.613 118.244 177.004ZM108.224 177.004C108.224 174.801 107.802 172.727 106.958 170.781C106.115 168.812 104.966 167.113 103.513 165.684C102.083 164.23 100.384 163.082 98.4155 162.238C96.4702 161.395 94.396 160.973 92.1929 160.973C89.9663 160.973 87.8804 161.395 85.9351 162.238C83.9897 163.082 82.2905 164.23 80.8374 165.684C79.3843 167.113 78.2358 168.812 77.3921 170.781C76.5483 172.727 76.1265 174.801 76.1265 177.004C76.1265 179.207 76.5483 181.281 77.3921 183.227C78.2358 185.148 79.3843 186.836 80.8374 188.289C82.2905 189.742 83.9897 190.891 85.9351 191.734C87.8804 192.578 89.9663 193 92.1929 193C94.396 193 96.4702 192.578 98.4155 191.734C100.384 190.891 102.083 189.742 103.513 188.289C104.966 186.836 106.115 185.148 106.958 183.227C107.802 181.281 108.224 179.207 108.224 177.004ZM165.212 202H154.419L134.978 168.812V202H124.888V151.586H135.681L155.123 184.809V151.586H165.212V202ZM209.158 202H174.599V151.586H209.158V161.676H184.689V171.766H201.248V181.855H184.689V191.91H209.158V202ZM286.431 187.586C286.431 189.672 286.033 191.641 285.236 193.492C284.462 195.32 283.384 196.926 282.001 198.309C280.642 199.668 279.037 200.746 277.185 201.543C275.357 202.316 273.4 202.703 271.314 202.703C269.439 202.703 267.634 202.375 265.9 201.719C264.189 201.062 262.642 200.102 261.259 198.836C259.876 200.102 258.318 201.062 256.583 201.719C254.849 202.375 253.044 202.703 251.169 202.703C249.083 202.703 247.115 202.316 245.263 201.543C243.435 200.746 241.83 199.668 240.447 198.309C239.087 196.926 238.009 195.32 237.212 193.492C236.439 191.641 236.052 189.672 236.052 187.586V151.586H246.142V187.586C246.142 188.289 246.271 188.957 246.529 189.59C246.787 190.199 247.138 190.738 247.583 191.207C248.052 191.652 248.591 192.004 249.201 192.262C249.81 192.52 250.466 192.648 251.169 192.648C251.873 192.648 252.529 192.52 253.138 192.262C253.748 192.004 254.275 191.652 254.72 191.207C255.189 190.738 255.552 190.199 255.81 189.59C256.068 188.957 256.197 188.289 256.197 187.586V151.586H266.287V187.586C266.287 188.289 266.416 188.957 266.673 189.59C266.931 190.199 267.283 190.738 267.728 191.207C268.197 191.652 268.736 192.004 269.345 192.262C269.955 192.52 270.611 192.648 271.314 192.648C272.017 192.648 272.673 192.52 273.283 192.262C273.892 192.004 274.419 191.652 274.865 191.207C275.333 190.738 275.697 190.199 275.955 189.59C276.236 188.957 276.376 188.289 276.376 187.586V151.586H286.431V187.586ZM325.138 181.855V171.766C325.138 170.383 324.869 169.082 324.33 167.863C323.814 166.621 323.099 165.543 322.185 164.629C321.271 163.715 320.193 163 318.951 162.484C317.732 161.945 316.431 161.676 315.048 161.676C313.666 161.676 312.353 161.945 311.111 162.484C309.892 163 308.826 163.715 307.912 164.629C306.998 165.543 306.271 166.621 305.732 167.863C305.216 169.082 304.958 170.383 304.958 171.766V181.855H325.138ZM335.228 202H325.138V191.91H304.958V202H294.904V171.766C294.904 168.977 295.431 166.363 296.486 163.926C297.541 161.465 298.97 159.32 300.775 157.492C302.603 155.664 304.736 154.223 307.173 153.168C309.634 152.113 312.259 151.586 315.048 151.586C317.837 151.586 320.451 152.113 322.888 153.168C325.349 154.223 327.494 155.664 329.322 157.492C331.15 159.32 332.591 161.465 333.646 163.926C334.701 166.363 335.228 168.977 335.228 171.766V202ZM366.095 202H356.041V186.215C353.814 185.652 351.763 184.75 349.888 183.508C348.037 182.266 346.443 180.789 345.107 179.078C343.771 177.344 342.728 175.434 341.978 173.348C341.251 171.238 340.888 169.023 340.888 166.703V151.586H350.978V166.703C350.978 168.086 351.236 169.398 351.751 170.641C352.291 171.859 353.017 172.926 353.931 173.84C354.845 174.754 355.912 175.48 357.13 176.02C358.373 176.535 359.685 176.793 361.068 176.793C362.451 176.793 363.751 176.535 364.97 176.02C366.212 175.48 367.291 174.754 368.205 173.84C369.119 172.926 369.833 171.859 370.349 170.641C370.888 169.398 371.158 168.086 371.158 166.703V151.586H381.212V166.703C381.212 169.023 380.837 171.238 380.087 173.348C379.361 175.434 378.33 177.344 376.994 179.078C375.658 180.789 374.064 182.266 372.212 183.508C370.361 184.75 368.322 185.652 366.095 186.215V202Z" fill="#361464"/>
</g>
<defs>
<filter id="filter0_d" x="23.5117" y="221.053" width="39.1232" height="36.4367" filterUnits="userSpaceOnUse" color-interpolation-filters="sRGB">
<feFlood flood-opacity="0" result="BackgroundImageFix"/>
<feColorMatrix in="SourceAlpha" type="matrix" values="0 0 0 0 0 0 0 0 0 0 0 0 0 0 0 0 0 0 127 0"/>
<feOffset dy="4"/>
<feGaussianBlur stdDeviation="2"/>
<feColorMatrix type="matrix" values="0 0 0 0 0 0 0 0 0 0 0 0 0 0 0 0 0 0 0.25 0"/>
<feBlend mode="normal" in2="BackgroundImageFix" result="effect1_dropShadow"/>
<feBlend mode="normal" in="SourceGraphic" in2="effect1_dropShadow" result="shape"/>
</filter>
<filter id="filter1_d" x="38.486" y="0" width="388.674" height="371" filterUnits="userSpaceOnUse" color-interpolation-filters="sRGB">
<feFlood flood-opacity="0" result="BackgroundImageFix"/>
<feColorMatrix in="SourceAlpha" type="matrix" values="0 0 0 0 0 0 0 0 0 0 0 0 0 0 0 0 0 0 127 0"/>
<feOffset dy="4"/>
<feGaussianBlur stdDeviation="2"/>
<feColorMatrix type="matrix" values="0 0 0 0 0 0 0 0 0 0 0 0 0 0 0 0 0 0 0.25 0"/>
<feBlend mode="normal" in2="BackgroundImageFix" result="effect1_dropShadow"/>
<feBlend mode="normal" in="SourceGraphic" in2="effect1_dropShadow" result="shape"/>
</filter>
<filter id="filter2_d" x="52.778" y="47" width="363" height="282" filterUnits="userSpaceOnUse" color-interpolation-filters="sRGB">
<feFlood flood-opacity="0" result="BackgroundImageFix"/>
<feColorMatrix in="SourceAlpha" type="matrix" values="0 0 0 0 0 0 0 0 0 0 0 0 0 0 0 0 0 0 127 0"/>
<feOffset dy="4"/>
<feGaussianBlur stdDeviation="2"/>
<feColorMatrix type="matrix" values="0 0 0 0 0 0 0 0 0 0 0 0 0 0 0 0 0 0 0.25 0"/>
<feBlend mode="normal" in2="BackgroundImageFix" result="effect1_dropShadow"/>
<feBlend mode="normal" in="SourceGraphic" in2="effect1_dropShadow" result="shape"/>
</filter>
<filter id="filter3_d" x="137.048" y="237.312" width="193.297" height="25.1719" filterUnits="userSpaceOnUse" color-interpolation-filters="sRGB">
<feFlood flood-opacity="0" result="BackgroundImageFix"/>
<feColorMatrix in="SourceAlpha" type="matrix" values="0 0 0 0 0 0 0 0 0 0 0 0 0 0 0 0 0 0 127 0"/>
<feOffset dy="2"/>
<feColorMatrix type="matrix" values="0 0 0 0 0 0 0 0 0 0 0 0 0 0 0 0 0 0 0.25 0"/>
<feBlend mode="normal" in2="BackgroundImageFix" result="effect1_dropShadow"/>
<feBlend mode="normal" in="SourceGraphic" in2="effect1_dropShadow" result="shape"/>
</filter>
<filter id="filter4_d" x="15.1074" y="89" width="450.175" height="182.5" filterUnits="userSpaceOnUse" color-interpolation-filters="sRGB">
<feFlood flood-opacity="0" result="BackgroundImageFix"/>
<feColorMatrix in="SourceAlpha" type="matrix" values="0 0 0 0 0 0 0 0 0 0 0 0 0 0 0 0 0 0 127 0"/>
<feOffset dy="4"/>
<feGaussianBlur stdDeviation="2"/>
<feColorMatrix type="matrix" values="0 0 0 0 0 0 0 0 0 0 0 0 0 0 0 0 0 0 0.33 0"/>
<feBlend mode="normal" in2="BackgroundImageFix" result="effect1_dropShadow"/>
<feBlend mode="normal" in="SourceGraphic" in2="effect1_dropShadow" result="shape"/>
</filter>
<filter id="filter5_i" x="66.1069" y="150.953" width="315.105" height="52.1367" filterUnits="userSpaceOnUse" color-interpolation-filters="sRGB">
<feFlood flood-opacity="0" result="BackgroundImageFix"/>
<feBlend mode="normal" in="SourceGraphic" in2="BackgroundImageFix" result="shape"/>
<feColorMatrix in="SourceAlpha" type="matrix" values="0 0 0 0 0 0 0 0 0 0 0 0 0 0 0 0 0 0 127 0" result="hardAlpha"/>
<feOffset dy="2"/>
<feComposite in2="hardAlpha" operator="arithmetic" k2="-1" k3="1"/>
<feColorMatrix type="matrix" values="0 0 0 0 0 0 0 0 0 0 0 0 0 0 0 0 0 0 0.25 0"/>
<feBlend mode="normal" in2="shape" result="effect1_innerShadow"/>
</filter>
<linearGradient id="paint0_linear" x1="27.5859" y1="242.981" x2="45.5685" y2="247.465" gradientUnits="userSpaceOnUse">
<stop stop-color="#CCB209"/>
<stop offset="1" stop-color="#FFDE3A"/>
</linearGradient>
</defs>
</svg>
