<svg width="112" height="112" viewBox="0 0 112 112" fill="none" xmlns="http://www.w3.org/2000/svg">
<rect width="112" height="112" rx="56" fill="#028692"/>
<path d="M59.3988 63.7512C58.2737 66.2513 56.8111 76.7989 51.1483 77.2519C44.9282 77.7495 41.6793 73.4188 36.4734 71.6521M36.4734 71.6521C36.4482 71.6436 36.4229 71.635 36.3975 71.6266C29.6911 69.3911 26.5789 74.5118 27.8971 76.2518C30.0851 79.1401 34.2733 76.7191 36.4734 71.6521ZM36.4734 71.6521C36.8444 70.7979 37.1588 69.8684 37.3976 68.8764C38.3931 64.741 38.6805 63.2512 39.2727 57.6259C40.3122 47.7503 39.8977 37.1248 44.648 34.7496C49.3982 32.3745 45.523 48.2504 39.483 56.8758M74.7746 44.3751C74.7746 44.3751 76.2746 35.4997 69.5243 35.4997C62.7795 35.4997 57.158 55.2358 69.9921 57.1211C70.007 57.1233 70.02 57.1248 70.0311 57.1257M84.4001 59.251C84.4001 59.251 79.3998 77.0019 69.2743 77.2519C59.1546 77.5018 51.4072 60.6454 69.9921 57.1319C70.007 57.1291 70.02 57.1271 70.0311 57.1257M70.0311 57.1257C70.0977 57.1174 70.0978 57.1312 70.0311 57.1257Z" stroke="white" stroke-width="4" stroke-linecap="round"/>
</svg>
